<?xml version="1.0" ?><!DOCTYPE svg  PUBLIC '-//W3C//DTD SVG 1.1//EN'  'http://www.w3.org/Graphics/SVG/1.1/DTD/svg11.dtd'><svg height="48px" id="Layer_1" style="enable-background:new 0 0 48 48;" version="1.1" viewBox="0 0 48 48" width="48px" xml:space="preserve" xmlns="http://www.w3.org/2000/svg" xmlns:xlink="http://www.w3.org/1999/xlink"><g><path d="M39.559,12.307c0.55,0,1,0.45,1,1v20.27c0,0.55-0.45,1-1,1H9.479   c-0.55,0-1-0.45-1-1v-20.27c0-0.55,0.45-1,1-1H39.559z" style="fill:none;stroke:#231F20;stroke-miterlimit:10;"/></g><g><path d="M35.592,12.307c2.2,0,4,0.116,4,0.258s-1.24,1.562-2.756,3.157   l-9.49,9.987c-1.516,1.595-3.995,1.595-5.511-0.001l-9.957-10.484c-1.516-1.596-2.755-2.904-2.755-2.909c0-0.004,1.8-0.008,4-0.008   H35.592z" style="fill:none;stroke:#231F20;stroke-miterlimit:10;"/></g><path d="M9.569,34.043c-0.22,0.221-0.567,0.228-0.776,0.018l0,0c-0.211-0.209-0.203-0.557,0.017-0.776  l8.575-8.575c0.219-0.219,0.566-0.227,0.777-0.018l0,0c0.209,0.21,0.201,0.558-0.018,0.777L9.569,34.043z" style="fill:#231F20;"/><path d="M39.406,34.15c0.219,0.221,0.566,0.228,0.776,0.018l0,0c0.21-0.209,0.202-0.557-0.017-0.776  l-8.576-8.575c-0.219-0.219-0.566-0.227-0.776-0.018l0,0c-0.21,0.21-0.202,0.558,0.017,0.777L39.406,34.15z" style="fill:#231F20;"/><path d="M19.719,15.749c0,1.201-0.974,2.175-2.175,2.175l0,0  c-1.202,0-2.175-0.974-2.175-2.175l0,0c0-1.201,0.973-2.175,2.175-2.175l0,0C18.745,13.574,19.719,14.548,19.719,15.749  L19.719,15.749z" style="fill:none;stroke:#231F20;stroke-miterlimit:10;"/><path d="M26.402,14.5c0,0.259-0.21,0.469-0.469,0.469h-4.812c-0.259,0-0.469-0.21-0.469-0.469l0,0  c0-0.259,0.21-0.469,0.469-0.469h4.812C26.192,14.031,26.402,14.241,26.402,14.5L26.402,14.5z" style="fill:#231F20;"/><path d="M28.434,15.906c0,0.259-0.21,0.469-0.469,0.469h-5.531c-0.259,0-0.469-0.21-0.469-0.469l0,0  c0-0.259,0.21-0.469,0.469-0.469h5.531C28.224,15.438,28.434,15.647,28.434,15.906L28.434,15.906z" style="fill:#231F20;"/><path d="M26.84,17.438c0,0.259-0.21,0.469-0.469,0.469h-5.219c-0.259,0-0.469-0.21-0.469-0.469l0,0  c0-0.259,0.21-0.469,0.469-0.469h5.219C26.63,16.969,26.84,17.179,26.84,17.438L26.84,17.438z" style="fill:#231F20;"/></svg>