<?xml version="1.0" ?><svg height="600mm" id="svg4658" version="1.1" viewBox="0 0 2125.9843 2125.9842" width="600mm" xmlns="http://www.w3.org/2000/svg" xmlns:cc="http://creativecommons.org/ns#" xmlns:dc="http://purl.org/dc/elements/1.1/" xmlns:inkscape="http://www.inkscape.org/namespaces/inkscape" xmlns:rdf="http://www.w3.org/1999/02/22-rdf-syntax-ns#" xmlns:sodipodi="http://sodipodi.sourceforge.net/DTD/sodipodi-0.dtd" xmlns:svg="http://www.w3.org/2000/svg"><defs id="defs4660"/><g id="layer1" transform="translate(0,1073.6222)"><path d="m 2118.6793,-552.89736 z m 0,0 0,1184.98356 c 0,81.28639 -64.2541,146.72873 -144.0688,146.72873 l -1814.34709,0 908.55549,-565.80779 z" id="path4329" style="opacity:1;fill:#eeede9;fill-opacity:1;stroke:none;stroke-width:1;stroke-miterlimit:4;stroke-dasharray:none;stroke-opacity:1"/><path d="m 15.264261,-556.92519 z m 0,0 0,1184.9837 c 0,81.28638 64.254092,146.72872 144.068879,146.72872 l 1814.34686,0 -908.5556,-565.80778 z" id="path4331" style="opacity:1;fill:#e9e7e0;fill-opacity:1;stroke:none;stroke-width:1;stroke-miterlimit:4;stroke-dasharray:none;stroke-opacity:1"/><path d="m 160.60315,-710.31465 1814.34845,0 c 79.8148,0 144.0701,76.37438 144.0701,171.24279 0,0 -618.3046,581.703031 -989.7622,776.11196 -19.4299,10.16883 -40.9349,19.24528 -62.8643,19.40063 -22.2277,0.15732 -44.2368,-8.5698 -63.9916,-18.7602 C 630.59013,45.882541 16.533004,-539.07186 16.533004,-539.07186 c 0,-94.86841 64.255361,-171.24279 144.070146,-171.24279 z" id="path4325" style="opacity:1;fill:#e0ddd4;fill-opacity:1;stroke:none;stroke-width:1;stroke-miterlimit:4;stroke-dasharray:none;stroke-opacity:1"/><ellipse cx="1067.7773" cy="240.14478" id="path4727" rx="134.12782" ry="126.53569" style="opacity:1;fill:#efc829;fill-opacity:1;stroke:none;stroke-width:12.56637096;stroke-miterlimit:4;stroke-dasharray:none;stroke-opacity:0.63372091"/></g></svg>